<?xml version="1.0" standalone="no"?>
<!DOCTYPE svg PUBLIC "-//W3C//DTD SVG 20010904//EN"
 "http://www.w3.org/TR/2001/REC-SVG-20010904/DTD/svg10.dtd">
<svg version="1.0" xmlns="http://www.w3.org/2000/svg"
 width="315.000000pt" height="314.000000pt" viewBox="0 0 315.000000 314.000000"
 preserveAspectRatio="xMidYMid meet">

<g transform="translate(0.000000,314.000000) scale(0.100000,-0.100000)"
fill="#000000" stroke="none">
<path d="M1430 3054 c-14 -2 -59 -9 -100 -15 -119 -18 -277 -66 -389 -120
-118 -56 -274 -156 -266 -170 3 -5 0 -6 -8 -3 -9 3 -24 -6 -36 -22 -11 -15
-21 -24 -21 -21 0 3 -16 -9 -35 -25 -19 -17 -32 -35 -29 -40 3 -4 0 -8 -7 -8
-18 0 -111 -99 -104 -111 4 -5 1 -8 -5 -7 -7 2 -20 -13 -31 -32 -10 -19 -19
-31 -19 -26 0 5 -9 -3 -20 -17 -11 -14 -20 -30 -20 -35 0 -6 -4 -12 -9 -14 -5
-1 -11 -10 -13 -18 -2 -8 -8 -19 -15 -25 -14 -12 -94 -165 -86 -165 3 0 1 -6
-5 -12 -27 -33 -91 -243 -113 -368 -21 -122 -16 -385 10 -505 39 -185 98 -342
178 -477 54 -91 144 -208 155 -202 6 4 8 2 4 -4 -9 -15 131 -155 147 -146 6 4
9 4 5 -1 -10 -11 41 -57 54 -49 6 4 8 2 4 -4 -6 -11 52 -62 72 -62 6 0 12 -4
14 -9 2 -5 32 -26 68 -47 554 -332 1250 -266 1746 165 247 215 413 512 481
856 26 134 24 406 -5 541 -84 393 -311 735 -628 946 -256 170 -491 245 -794
253 -85 2 -166 2 -180 -1z m211 -356 c11 -22 39 -63 60 -91 58 -73 61 -106 23
-232 -16 -52 -19 -56 -22 -31 -2 16 1 49 7 73 16 61 -1 118 -47 160 -20 18
-41 33 -47 33 -5 0 -25 -73 -43 -162 -18 -90 -40 -173 -48 -185 -30 -47 -101
-38 -149 19 -30 35 -33 92 -9 127 14 19 23 22 52 17 19 -3 47 -17 63 -31 l27
-27 36 154 c44 182 55 218 67 218 5 0 18 -19 30 -42z m39 -517 c0 -5 -5 -22
-10 -37 -14 -35 -36 -17 -26 20 6 24 36 38 36 17z m240 -33 c-1 -2 -9 -32 -20
-68 -11 -38 -19 -55 -19 -40 -2 43 -16 56 -46 42 -76 -35 -85 -262 -11 -262
26 0 66 31 66 50 0 6 5 10 10 10 16 0 -18 -58 -41 -70 -34 -19 -80 -8 -103 23
-16 22 -21 43 -20 90 0 100 51 177 116 177 16 0 28 5 28 13 0 14 20 37 32 37
4 0 8 -1 8 -2z m-876 -43 c0 -16 -6 -70 -12 -120 -15 -110 -15 -267 -2 -317
14 -49 39 -57 67 -21 13 15 23 23 23 16 0 -7 -11 -24 -24 -40 -21 -24 -27 -26
-52 -18 -16 6 -36 24 -44 40 -21 41 -25 243 -7 368 7 53 10 97 7 97 -11 0 -66
-109 -86 -170 -9 -30 -29 -102 -43 -159 -37 -150 -55 -148 -44 5 10 147 10
223 0 248 -7 18 -8 18 -27 1 -29 -26 -80 -177 -101 -298 -10 -59 -24 -117 -30
-129 -20 -38 -29 -5 -19 72 21 164 7 299 -35 326 -26 17 -74 4 -76 -21 -3 -31
-4 -35 -14 -36 -21 -1 -15 31 9 56 33 33 84 34 113 3 12 -13 27 -43 33 -68 7
-25 14 -52 17 -60 2 -8 18 19 34 60 31 82 68 130 100 130 23 0 35 -26 45 -95
6 -46 7 -48 17 -25 57 138 95 193 131 188 16 -2 21 -10 20 -33z m471 8 c-28
-70 -28 -71 10 -172 41 -109 42 -147 4 -195 -40 -51 -109 -22 -109 44 0 39 29
116 51 136 22 20 26 9 5 -15 -29 -34 -45 -117 -30 -155 11 -29 44 -18 60 19
20 50 17 99 -15 192 l-27 83 -18 -57 c-24 -75 -55 -147 -62 -141 -7 8 63 208
87 247 20 33 57 45 44 14z m148 -80 c-4 -16 -7 -76 -8 -135 0 -65 -4 -107 -10
-105 -16 6 -23 47 -24 140 -1 91 9 127 35 127 11 0 13 -7 7 -27z m-341 -32
c-22 -102 -23 -250 0 -294 9 -18 11 -18 29 -1 22 20 26 7 6 -20 -31 -43 -87
27 -87 108 0 52 -10 49 -42 -15 -29 -57 -60 -81 -87 -65 -34 22 -37 156 -5
236 17 43 50 57 41 18 -3 -13 -11 -59 -17 -104 -11 -83 -2 -142 20 -129 16 10
45 73 75 165 15 47 32 93 37 103 10 19 35 18 30 -2z m1161 -277 l32 5 -36 -15
c-36 -16 -37 -17 -44 -90 -7 -75 0 -144 17 -176 11 -23 44 -23 52 -2 4 9 9 14
12 11 11 -11 -22 -47 -43 -47 -50 0 -76 69 -71 191 3 71 1 79 -17 84 -20 6
-19 6 2 15 12 5 24 19 28 32 4 13 13 29 19 37 9 12 12 8 14 -18 3 -30 5 -32
35 -27z m-580 0 c-17 -337 -17 -348 6 -374 l21 -25 20 24 c11 13 20 18 20 12
0 -14 -37 -51 -50 -51 -28 0 -58 49 -65 105 -8 58 0 206 14 283 5 24 5 42 -1
42 -17 0 -67 -124 -97 -239 -44 -168 -53 -164 -45 20 5 102 3 158 -3 162 -27
17 -73 -85 -98 -215 -38 -202 -55 -209 -48 -20 5 112 3 144 -10 175 -15 35
-20 38 -49 35 -28 -2 -34 -8 -36 -30 -4 -30 -22 -39 -22 -10 0 37 46 68 87 57
27 -6 62 -71 63 -114 0 -33 12 -18 34 42 22 58 61 107 86 107 20 0 25 -11 35
-79 l7 -45 18 46 c47 124 117 181 113 92z m445 -50 c-5 -20 -7 -45 -5 -56 4
-12 1 -18 -6 -15 -7 2 -15 19 -18 38 l-6 34 -21 -45 c-12 -25 -29 -75 -39
-112 -24 -95 -36 -90 -47 22 -6 67 4 132 23 138 12 4 13 -9 8 -74 -7 -85 -9
-86 39 22 38 89 94 125 72 48z m-250 -31 c2 -9 -5 -11 -26 -7 -26 5 -31 2 -46
-31 -21 -44 -27 -158 -9 -176 13 -13 49 50 78 141 32 101 56 105 44 7 -8 -63
1 -170 15 -184 4 -5 14 1 22 11 8 11 14 15 14 10 0 -6 -7 -19 -15 -30 -15 -19
-16 -18 -39 8 -15 17 -27 46 -31 79 l-7 52 -25 -51 c-31 -67 -59 -84 -85 -52
-38 47 -12 185 43 224 27 18 60 18 67 -1z m-725 -539 c15 18 26 25 30 19 4 -6
-4 -25 -18 -41 -14 -16 -25 -42 -25 -56 0 -14 -4 -26 -10 -26 -5 0 -10 12 -10
26 0 14 -11 40 -25 58 -31 40 -19 58 12 19 l23 -28 23 29z m157 6 c41 -41 13
-110 -45 -110 -58 0 -86 69 -45 110 11 11 31 20 45 20 14 0 34 -9 45 -20z m70
-29 c0 -42 18 -65 47 -59 13 2 19 15 23 51 3 26 10 47 15 47 15 -1 11 -86 -4
-104 -17 -20 -65 -21 -85 0 -18 17 -23 120 -6 109 6 -3 10 -23 10 -44z m220
31 c17 -13 21 -24 16 -40 -4 -12 -12 -22 -18 -22 -6 0 -3 -9 6 -19 10 -10 13
-22 8 -25 -5 -3 -17 3 -27 14 -24 26 -55 26 -55 0 0 -11 -4 -20 -10 -20 -6 0
-10 28 -10 65 l0 65 34 0 c19 0 44 -8 56 -18z m-496 -236 c12 -18 14 -17 35
17 12 21 27 35 32 31 12 -7 12 -124 -1 -124 -5 0 -10 17 -11 38 0 36 0 37 -16
15 -19 -27 -38 -29 -49 -5 -6 14 -8 12 -13 -12 -3 -16 -12 -31 -18 -34 -10 -3
-13 13 -13 56 0 84 8 87 54 18z m138 -6 c2 -34 7 -46 21 -48 30 -6 47 17 47
64 0 24 5 44 10 44 6 0 10 -22 10 -49 0 -56 -17 -81 -57 -81 -41 0 -63 27 -63
75 0 74 27 70 32 -5z m214 46 c24 -18 12 -31 -16 -16 -22 12 -60 5 -60 -10 0
-5 19 -13 42 -17 46 -9 60 -32 38 -58 -17 -20 -75 -19 -95 1 -21 22 -11 30 19
15 25 -14 57 -12 57 4 0 5 -17 14 -38 20 -43 12 -56 41 -27 62 23 17 55 17 80
-1z m61 -53 c-1 -35 -7 -58 -14 -61 -10 -3 -13 13 -13 56 0 32 3 62 6 65 15
15 23 -8 21 -60z m114 56 c11 -5 17 -14 14 -20 -4 -5 -14 -5 -26 2 -42 22 -82
-18 -59 -61 12 -22 49 -27 68 -8 17 17 28 2 12 -17 -19 -23 -76 -19 -94 7 -44
62 18 133 85 97z m-505 -203 c24 -18 12 -31 -16 -16 -22 12 -60 5 -60 -10 0
-5 19 -13 42 -17 46 -9 60 -32 38 -58 -17 -20 -75 -19 -95 1 -21 22 -11 30 19
15 26 -14 57 -12 63 5 2 5 -16 14 -39 20 -30 6 -44 15 -47 28 -7 39 56 60 95
32z m139 4 c4 -6 -5 -10 -19 -10 -25 0 -26 -3 -26 -55 0 -30 -4 -55 -10 -55
-5 0 -10 8 -11 18 0 9 -1 33 -2 52 -2 28 -6 36 -24 38 -13 2 -23 8 -23 13 0
12 107 12 115 -1z m117 -7 c22 -20 24 -76 2 -97 -32 -33 -102 -11 -105 32 -3
33 2 47 23 65 25 21 56 22 80 0z m142 -2 c19 -20 14 -61 -6 -61 -6 0 -3 -9 6
-19 10 -10 13 -22 8 -25 -5 -3 -17 3 -27 14 -24 26 -55 26 -55 0 0 -11 -4 -20
-10 -20 -6 0 -10 28 -10 65 l0 65 38 0 c26 0 45 -7 56 -19z m136 10 c0 -6 -17
-11 -37 -13 -26 -2 -38 -8 -38 -18 0 -10 12 -16 38 -18 50 -4 48 -22 -3 -22
-29 0 -40 -4 -40 -15 0 -11 11 -15 40 -15 22 0 40 -4 40 -10 0 -5 -22 -10 -50
-10 l-50 0 0 58 c0 32 3 62 7 65 10 11 93 8 93 -2z"/>
<path d="M1456 1094 c-19 -18 -20 -28 -6 -55 15 -27 58 -25 69 4 19 50 -27 88
-63 51z"/>
<path d="M1750 1085 c0 -20 5 -25 24 -25 31 0 50 22 34 38 -7 7 -22 12 -35 12
-18 0 -23 -6 -23 -25z"/>
<path d="M1530 696 c-28 -35 11 -93 48 -70 35 22 22 84 -18 84 -10 0 -23 -7
-30 -14z"/>
<path d="M1670 685 c0 -20 5 -25 24 -25 31 0 50 22 34 38 -7 7 -22 12 -35 12
-18 0 -23 -6 -23 -25z"/>
</g>
</svg>
